<svg width="172" height="172" viewBox="0 0 172 172" fill="none" xmlns="http://www.w3.org/2000/svg">
<path fill-rule="evenodd" clip-rule="evenodd" d="M172 86C172 133.497 133.496 172 86.0002 172C38.5032 172 0.000244141 133.497 0.000244141 86C0.000244141 38.5038 38.5032 0 86.0002 0C133.496 0 172 38.5038 172 86Z" fill="#83C3EB"/>
<mask id="mask0_204_6846" style="mask-type:luminance" maskUnits="userSpaceOnUse" x="0" y="0" width="173" height="172">
<path fill-rule="evenodd" clip-rule="evenodd" d="M172 86C172 133.497 133.496 172 86.0002 172C38.5032 172 0.000244141 133.497 0.000244141 86C0.000244141 38.5038 38.5032 0 86.0002 0C133.496 0 172 38.5038 172 86Z" fill="white"/>
</mask>
<g mask="url(#mask0_204_6846)">
<path fill-rule="evenodd" clip-rule="evenodd" d="M202.56 71.1544C202.309 41.5122 176.468 17.5522 144.313 17.5522C112.001 17.5522 86.053 41.7433 86.053 71.5835C86.053 73.6672 87.7837 99.4735 88.4171 101.459C98.6636 133.557 144.313 155.491 144.313 155.491C144.313 155.491 182.725 141.499 198.913 106.164L202.56 71.1544Z" fill="#0039A6"/>
<path fill-rule="evenodd" clip-rule="evenodd" d="M193.751 85.9043C193.538 58.6253 171.374 36.5762 144.045 36.5762C116.583 36.5762 94.3291 58.8385 94.3291 86.2994C94.3291 88.2174 99.0573 115.331 99.0573 117.248C99.0573 144.71 116.583 166.971 144.045 166.971C170.047 166.971 186.641 147.01 188.837 121.578L193.751 85.9043Z" fill="#FABE64"/>
<path fill-rule="evenodd" clip-rule="evenodd" d="M173.674 200.179C166.183 180.651 178.527 156.429 184.513 139.878H143.869H103.355C108.826 152.883 122.348 182.086 114.129 200.179C109.053 211.352 93.1213 233.273 93.1213 233.273H143.869H194.681C194.681 233.273 178.07 211.637 173.674 200.179Z" fill="#FABE64"/>
<path fill-rule="evenodd" clip-rule="evenodd" d="M108.518 49.34C132.809 38.2514 145.589 33.129 175.778 48.6753C187.832 54.8826 215.585 27.7075 181.35 4.16406C182.985 9.04098 187.222 19.8062 158.592 10.8147C130.744 2.06692 98.4426 24.8139 108.518 49.34Z" fill="#0039A6"/>
<path fill-rule="evenodd" clip-rule="evenodd" d="M109.276 47.0869C110.474 81.7234 99.4394 72.4892 96.8119 97.112L89.6238 93.7975L99.4394 50.5332L109.276 47.0869Z" fill="#0039A6"/>
<path fill-rule="evenodd" clip-rule="evenodd" d="M101.804 101.761C101.804 96.365 97.6049 91.9897 92.2084 91.9897C86.8119 91.9897 82.1715 96.365 82.1715 101.761C82.1715 107.029 87.0601 111.311 91.2965 111.514L101.178 111.313C101.178 111.313 101.804 102.539 101.804 101.761Z" fill="#FABE64"/>
<path fill-rule="evenodd" clip-rule="evenodd" d="M159.482 96.2128C157.615 96.2128 156.088 94.6854 156.088 92.8184V90.0476C156.088 88.1807 157.615 86.6533 159.482 86.6533C161.349 86.6533 162.877 88.1807 162.877 90.0476V92.8184C162.877 94.6854 161.349 96.2128 159.482 96.2128Z" fill="#001E5F"/>
<path fill-rule="evenodd" clip-rule="evenodd" d="M129.138 96.2128C127.272 96.2128 125.744 94.6854 125.744 92.8184V90.0476C125.744 88.1807 127.272 86.6533 129.138 86.6533C131.005 86.6533 132.533 88.1807 132.533 90.0476V92.8184C132.533 94.6854 131.005 96.2128 129.138 96.2128Z" fill="#001E5F"/>
<path fill-rule="evenodd" clip-rule="evenodd" d="M144.144 117.175C138.882 117.175 135.739 113.592 135.739 110.129C135.739 109.51 136.239 109.009 136.858 109.009C137.476 109.009 137.978 109.51 137.978 110.129C137.978 112.491 140.284 114.935 144.144 114.935C146.374 114.935 148.038 114.372 149.092 113.26C150.256 112.032 150.356 110.449 150.312 109.615C150.196 107.459 149.306 105.895 148.362 104.241C147.818 103.286 147.255 102.298 146.841 101.184C143.083 91.0801 144.574 81.6031 150.64 77.0379C153.308 75.0304 157.065 74.8745 158.153 74.8745C160.687 74.8745 163.207 75.5106 165.64 76.7656C166.189 77.0487 166.405 77.7242 166.122 78.2742C165.838 78.8233 165.162 79.0392 164.613 78.7562C162.501 77.6659 160.326 77.1141 158.153 77.1141C156.273 77.1141 153.665 77.5638 151.986 78.8278C146.732 82.782 145.536 91.2512 148.94 100.404C149.292 101.347 149.785 102.214 150.307 103.131C151.291 104.856 152.405 106.81 152.548 109.496C152.658 111.556 152.008 113.44 150.717 114.801C149.224 116.376 147.013 117.175 144.144 117.175Z" fill="#001E5F"/>
<path fill-rule="evenodd" clip-rule="evenodd" d="M120.916 79.0531C120.576 79.0531 120.241 78.899 120.02 78.607C119.648 78.1125 119.748 77.411 120.241 77.0384C122.91 75.0308 126.666 74.874 127.755 74.874C130.29 74.874 132.808 75.511 135.241 76.766C135.79 77.0491 136.006 77.7246 135.723 78.2746C135.439 78.8238 134.764 79.0396 134.215 78.7557C132.102 77.6663 129.929 77.1136 127.755 77.1136C125.874 77.1136 123.268 77.5642 121.589 78.8282C121.386 78.9796 121.151 79.0531 120.916 79.0531Z" fill="#001E5F"/>
<path fill-rule="evenodd" clip-rule="evenodd" d="M143.432 138.754C140.27 138.754 136.418 136.167 136.418 133.005C136.418 133.005 136.789 122.562 143.432 122.562C149.996 122.562 150.445 133.005 150.445 133.005C150.445 136.167 146.593 138.754 143.432 138.754Z" fill="#001E5F"/>
<path fill-rule="evenodd" clip-rule="evenodd" d="M102.604 76.9639L103.274 108.198C103.274 108.198 98.5478 108.458 97.1691 99.7879C95.7895 91.118 95.4858 79.4319 95.4858 79.4319L102.604 76.9639Z" fill="#0039A6"/>
<path fill-rule="evenodd" clip-rule="evenodd" d="M76.1461 98.5433L72.1059 91.3919C74.1072 87.3337 75.2368 82.7686 75.2368 77.9373C75.2368 61.1163 61.6032 47.479 44.7848 47.479C27.9673 47.479 14.3336 61.1163 14.3336 77.9373C14.3336 94.7593 27.9673 108.396 44.7848 108.396C53.6571 108.396 61.6399 104.598 67.2057 98.5433H76.1461Z" fill="white"/>
<path fill-rule="evenodd" clip-rule="evenodd" d="M44.228 94.9582C43.2874 94.9582 42.5035 94.6339 41.8765 93.9862C41.2485 93.3385 40.9358 92.5403 40.9358 91.5925C40.9358 90.6752 41.2485 89.8931 41.8765 89.2454C42.5035 88.5978 43.2874 88.2735 44.228 88.2735C45.1373 88.2735 45.9131 88.5978 46.5563 89.2454C47.1986 89.8931 47.5202 90.6752 47.5202 91.5925C47.5202 92.5403 47.1986 93.3385 46.5563 93.9862C45.9131 94.6339 45.1373 94.9582 44.228 94.9582ZM46.533 83.9108H41.6409V77.037C43.8052 76.6267 45.7178 75.8205 47.3796 74.6183C49.0413 73.4179 49.8727 72.0105 49.8727 70.3989C49.8727 68.8814 49.3083 67.689 48.1795 66.8191C47.0499 65.9502 45.5288 65.5157 43.6162 65.5157C40.857 65.5157 38.1131 66.416 35.3853 68.2175V63.7142C37.8936 61.8491 40.9197 60.9165 44.4636 60.9165C47.4414 60.9165 49.9506 61.7389 51.9895 63.3818C54.0589 65.0257 55.0936 67.2545 55.0936 70.0665C55.0936 72.3751 54.247 74.3504 52.5539 75.9934C50.9226 77.605 48.9159 78.7911 46.533 79.5489V83.9108Z" fill="#05BE50"/>
</g>
</svg>
